USFL
nRows=198
nColumns=2
inDegrees=yes
endheader
time	tib_ant_r	
3.72581	 62.397345	
3.75907	 62.404223	
3.79234	 62.386293	
3.8256	 62.383653	
3.85887	 62.393992	
3.89214	 62.432579	
3.9254	 62.423904	
3.95867	 62.390359	
3.99194	 62.378560	
4.0252	 62.371827	
4.05847	 62.364585	
4.09173	 62.375429	
4.125	 62.380760	
4.15827	 62.364532	
4.19153	 62.380311	
4.2248	 62.378546	
4.25806	 62.466602	
4.29133	 62.506417	
4.3246	 62.473027	
4.35786	 62.471171	
4.39113	 62.463784	
4.4244	 62.475031	
4.45766	 62.442537	
4.49093	 62.488243	
4.52419	 62.480609	
4.55746	 62.494837	
4.59073	 62.514383	
4.62399	 62.522329	
4.65726	 62.503323	
4.69052	 62.519149	
4.72379	 62.520063	
4.75706	 62.532673	
4.79032	 62.550597	
4.82359	 62.458826	
4.85685	 62.351440	
4.89012	 62.234953	
4.92339	 62.268491	
4.95665	 62.389270	
4.98992	 62.470872	
5.02319	 62.493023	
5.05645	 62.625640	
5.08972	 62.580684	
5.12298	 62.532456	
5.15625	 62.517132	
5.18952	 62.472269	
5.22278	 61.683903	
5.25605	 61.198589	
5.28931	 60.424605	
5.32258	 59.880529	
5.35585	 59.518255	
5.38911	 59.456149	
5.42238	 59.402410	
5.45565	 59.606902	
5.48891	 53.306570	
5.52218	 52.957896	
5.55544	 53.292174	
5.58871	 53.616711	
5.62198	 53.468584	
5.65524	 53.605888	
5.68851	 53.600502	
5.72177	 53.726243	
5.75504	 53.710512	
5.78831	 53.890500	
5.82157	 53.927865	
5.85484	 53.975461	
5.8881	 54.321959	
5.92137	 54.505703	
5.95464	 54.454025	
5.9879	 54.690919	
6.02117	 54.731062	
6.05444	 54.554396	
6.0877	 54.665384	
6.12097	 54.861521	
6.15423	 54.813062	
6.1875	 54.762807	
6.22077	 54.921733	
6.25403	 54.773766	
6.2873	 54.836275	
6.32056	 54.931300	
6.35383	 54.789414	
6.3871	 54.725937	
6.42036	 54.766585	
6.45363	 54.730419	
6.4869	 54.660730	
6.52016	 54.764262	
6.55343	 54.713216	
6.58669	 54.693602	
6.61996	 54.712166	
6.65323	 54.719990	
6.68649	 54.658025	
6.71976	 54.657426	
6.75302	 54.644195	
6.78629	 54.690843	
6.81956	 54.613606	
6.85282	 54.689817	
6.88609	 54.671943	
6.91935	 54.574290	
6.95262	 54.493949	
6.98589	 54.463440	
7.01915	 54.341012	
7.05242	 54.336529	
7.08569	 54.366546	
7.11895	 54.306867	
7.15222	 54.319821	
7.18548	 54.367100	
7.21875	 54.319722	
7.25202	 54.235067	
7.28528	 54.463779	
7.31855	 54.574082	
7.35181	 54.543247	
7.38508	 54.558443	
7.41835	 54.582362	
7.45161	 54.594764	
7.48488	 54.543008	
7.51815	 54.574369	
7.55141	 54.562551	
7.58468	 54.568420	
7.61794	 54.522416	
7.65121	 54.489024	
7.68448	 54.537456	
7.71774	 54.476424	
7.75101	 54.383711	
7.78427	 54.326920	
7.81754	 54.259678	
7.85081	 54.305784	
7.88407	 54.249026	
7.91734	 54.226736	
7.9506	 54.244878	
7.98387	 54.263359	
8.01714	 54.120924	
8.0504	 53.936878	
8.08367	 54.145758	
8.11694	 54.188961	
8.1502	 53.990804	
8.18347	 53.885159	
8.21673	 54.059961	
8.25	 53.961394	
8.28327	 53.756703	
8.31653	 53.367685	
8.3498	 53.153764	
8.38306	 53.600827	
8.41633	 53.451807	
8.4496	 53.559650	
8.48286	 53.626715	
8.51613	 53.323797	
8.5494	 53.481027	
8.58266	 53.341711	
8.61593	 53.267713	
8.64919	 53.210501	
8.68246	 53.076359	
8.71573	 53.031668	
8.74899	 52.895373	
8.78226	 52.771098	
8.81552	 52.568657	
8.84879	 52.395257	
8.88206	 52.260289	
8.91532	 52.119486	
8.94859	 51.973148	
8.98185	 51.541499	
9.01512	 51.300258	
9.04839	 51.612935	
9.08165	 51.523088	
9.11492	 50.934894	
9.14819	 50.800729	
9.18145	 50.596867	
9.21472	 50.016196	
9.24798	 49.660652	
9.28125	 49.637063	
9.31452	 49.522201	
9.34778	 49.160374	
9.38105	 48.961776	
9.41431	 48.867714	
9.44758	 48.535227	
9.48085	 48.014747	
9.51411	 47.881739	
9.54738	 47.516615	
9.58065	 47.034102	
9.61391	 46.700485	
9.64718	 46.372845	
9.68044	 46.230333	
9.71371	 46.409635	
9.74698	 46.273030	
9.78024	 46.232931	
9.81351	 46.276274	
9.84677	 46.203497	
9.88004	 46.229768	
9.91331	 46.239962	
9.94657	 46.352731	
9.97984	 46.762206	
10.0131	 47.095936	
10.0464	 47.397870	
10.0796	 47.345738	
10.1129	 48.214717	
10.1462	 48.374601	
10.1794	 48.752982	
10.2127	 48.545842	
10.246	 49.062312	
10.2792	 49.349803	
